<svg width="32" height="32" viewBox="0 0 32 32" fill="none" xmlns="http://www.w3.org/2000/svg">
<g clip-path="url(#clip0_9842_14)">
<path d="M9 6C9 5.44772 8.55228 5 8 5H4C3.44772 5 3 5.44772 3 6V8C3 8.55228 3.44772 9 4 9H8C8.55228 9 9 8.55228 9 8V6Z" fill="#9EA0A9"/>
<path d="M3 12C3 11.4477 3.44772 11 4 11H8C8.55228 11 9 11.4477 9 12V14C9 14.5523 8.55228 15 8 15H4C3.44772 15 3 14.5523 3 14V12Z" fill="#9EA0A9"/>
<path d="M9 24C9 23.4477 8.55228 23 8 23H4C3.44772 23 3 23.4477 3 24V26C3 26.5523 3.44772 27 4 27H8C8.55228 27 9 26.5523 9 26V24Z" fill="#9EA0A9"/>
<path d="M3 18C3 17.4477 3.44772 17 4 17H8C8.55228 17 9 17.4477 9 18V20C9 20.5523 8.55228 21 8 21H4C3.44772 21 3 20.5523 3 20V18Z" fill="#9EA0A9"/>
<path d="M29 7C29 5.89543 28.1046 5 27 5H13C11.8954 5 11 5.89543 11 7V25C11 26.1046 11.8954 27 13 27H27C28.1046 27 29 26.1046 29 25V7Z" fill="#9EA0A9"/>
</g>
<defs>
<clipPath id="clip0_9842_14">
<rect width="32" height="32" fill="white"/>
</clipPath>
</defs>
</svg>
