<svg width="32" height="32" viewBox="0 0 32 32" class="svg-color" xmlns="http://www.w3.org/2000/svg">
    <g clip-path="url(#clip0_8943_30611)">
        <path
            d="M14 6C14 4.89543 13.1046 4 12 4H6C4.89543 4 4 4.89543 4 6V12C4 13.1046 4.89543 14 6 14H12C13.1046 14 14 13.1046 14 12V6Z"
            fill="#202124" />
        <path
            d="M14 20C14 18.8954 13.1046 18 12 18H6C4.89543 18 4 18.8954 4 20V26C4 27.1046 4.89543 28 6 28H12C13.1046 28 14 27.1046 14 26V20Z"
            fill="#202124" />
        <path
            d="M18 6C18 4.89543 18.8954 4 20 4H26C27.1046 4 28 4.89543 28 6V12C28 13.1046 27.1046 14 26 14H20C18.8954 14 18 13.1046 18 12V6Z"
            fill="#202124" />
        <path
            d="M28 20C28 18.8954 27.1046 18 26 18H20C18.8954 18 18 18.8954 18 20V26C18 27.1046 18.8954 28 20 28H26C27.1046 28 28 27.1046 28 26V20Z"
            fill="#202124" />
    </g>
    <defs>
        <clipPath id="clip0_8943_30611">
            <rect width="32" height="32" fill="white" />
        </clipPath>
    </defs>
</svg>