<svg width="32" height="32" viewBox="0 0 32 32" fill="none" xmlns="http://www.w3.org/2000/svg">
<path d="M4 5C4 4.44772 4.44772 4 5 4H9C9.55228 4 10 4.44772 10 5V9C10 9.55228 9.55228 10 9 10H5C4.44772 10 4 9.55228 4 9V5Z" fill="#9EA0A9"/>
<path d="M4 14C4 13.4477 4.44772 13 5 13H9C9.55228 13 10 13.4477 10 14V18C10 18.5523 9.55228 19 9 19H5C4.44772 19 4 18.5523 4 18V14Z" fill="#9EA0A9"/>
<path d="M10 23C10 22.4477 9.55228 22 9 22H5C4.44772 22 4 22.4477 4 23V27C4 27.5523 4.44772 28 5 28H9C9.55228 28 10 27.5523 10 27V23Z" fill="#9EA0A9"/>
<path d="M13 5C13 4.44772 13.4477 4 14 4H18C18.5523 4 19 4.44772 19 5V9C19 9.55228 18.5523 10 18 10H14C13.4477 10 13 9.55228 13 9V5Z" fill="#9EA0A9"/>
<path d="M19 14C19 13.4477 18.5523 13 18 13H14C13.4477 13 13 13.4477 13 14V18C13 18.5523 13.4477 19 14 19H18C18.5523 19 19 18.5523 19 18V14Z" fill="#9EA0A9"/>
<path d="M13 23C13 22.4477 13.4477 22 14 22H18C18.5523 22 19 22.4477 19 23V27C19 27.5523 18.5523 28 18 28H14C13.4477 28 13 27.5523 13 27V23Z" fill="#9EA0A9"/>
<path d="M28 5C28 4.44772 27.5523 4 27 4H23C22.4477 4 22 4.44772 22 5V9C22 9.55228 22.4477 10 23 10H27C27.5523 10 28 9.55228 28 9V5Z" fill="#9EA0A9"/>
<path d="M22 14C22 13.4477 22.4477 13 23 13H27C27.5523 13 28 13.4477 28 14V18C28 18.5523 27.5523 19 27 19H23C22.4477 19 22 18.5523 22 18V14Z" fill="#9EA0A9"/>
<path d="M28 23C28 22.4477 27.5523 22 27 22H23C22.4477 22 22 22.4477 22 23V27C22 27.5523 22.4477 28 23 28H27C27.5523 28 28 27.5523 28 27V23Z" fill="#9EA0A9"/>
</svg>
